<svg width="45" height="46" viewBox="0 0 45 46" fill="none" xmlns="http://www.w3.org/2000/svg">
<path d="M18.8565 43.3003L22.0422 37.7936L26.6419 45.7468L32.4428 42.4041L24.3819 28.4689H19.7013L13.0555 39.9577L18.8565 43.3003Z" fill="white"/>
<path d="M3.07977 29.7219L9.45044 29.7223L4.84991 37.675L10.6506 41.0183L18.7107 27.0825L16.3704 23.0364L3.07953 23.0361L3.07977 29.7219Z" fill="white"/>
<path d="M6.97251 9.295L10.1575 14.8023L0.957273 14.8017L0.957031 21.4876L17.078 21.4872L19.4184 17.4411L12.7732 5.95183L6.97251 9.295Z" fill="white"/>
<path d="M26.6419 2.44639L23.4562 7.95319L18.8565 0L13.0555 3.34268L21.1165 17.278H25.7971L32.4428 5.78908L26.6419 2.44639Z" fill="white"/>
<path d="M42.4185 16.0248L36.0479 16.0245L40.6484 8.07175L34.8477 4.72859L26.7876 18.6642L29.1279 22.7104L42.4188 22.7107L42.4185 16.0248Z" fill="white"/>
<path d="M38.5258 36.4517L35.3409 30.9446L44.5411 30.945L44.5413 24.2592L28.4203 24.2597L26.08 28.3058L32.7251 39.795L38.5258 36.4517Z" fill="white"/>
</svg>
