<svg width="141" height="141" viewBox="0 0 141 141" fill="none" xmlns="http://www.w3.org/2000/svg">
<path d="M63.1499 106.118L68.9973 96.4883L77.4401 110.397L88.0879 104.551L73.2919 80.1816H64.7004L52.502 100.273L63.1499 106.118Z" fill="black"/>
<path d="M34.1913 82.3729L45.8848 82.3735L37.4404 96.2809L48.0878 102.127L62.8822 77.7572L58.5865 70.6816L34.1908 70.681L34.1913 82.3729Z" fill="black"/>
<path d="M41.3365 46.6512L47.1826 56.2821L30.2954 56.2811L30.2949 67.9732L59.8854 67.9723L64.1811 60.8967L51.9838 40.8048L41.3365 46.6512Z" fill="black"/>
<path d="M77.4401 34.6747L71.5927 44.3047L63.1499 30.3965L52.502 36.2421L67.2981 60.6115H75.8895L88.0879 40.5202L77.4401 34.6747Z" fill="black"/>
<path d="M106.398 58.42L94.705 58.4194L103.149 44.5121L92.502 38.6657L77.7075 63.0357L82.0033 70.1115L106.399 70.1119L106.398 58.42Z" fill="black"/>
<path d="M99.2534 94.1417L93.4073 84.511L110.294 84.5119L110.295 72.8199L80.7044 72.8208L76.4087 79.8964L88.606 99.9883L99.2534 94.1417Z" fill="black"/>
</svg>
