<svg width="141" height="141" viewBox="0 0 141 141" fill="none" xmlns="http://www.w3.org/2000/svg">
<path d="M63.3852 106.368L69.2326 96.7383L77.6754 110.647L88.3232 104.801L73.5272 80.4316H64.9358L52.7374 100.523L63.3852 106.368Z" fill="white"/>
<path d="M34.4266 82.6229L46.1201 82.6235L37.6758 96.5309L48.3231 102.377L63.1176 78.0072L58.8219 70.9316L34.4262 70.931L34.4266 82.6229Z" fill="white"/>
<path d="M41.5718 46.9012L47.4179 56.5321L30.5307 56.531L30.5303 68.2232L60.1208 68.2223L64.4165 61.1467L52.2192 41.0548L41.5718 46.9012Z" fill="white"/>
<path d="M77.6754 34.9247L71.828 44.5547L63.3852 30.6465L52.7374 36.492L67.5334 60.8614H76.1249L88.3232 40.7702L77.6754 34.9247Z" fill="white"/>
<path d="M106.634 58.67L94.9403 58.6694L103.385 44.762L92.7374 38.9157L77.9429 63.2857L82.2386 70.3615L106.634 70.3619L106.634 58.67Z" fill="white"/>
<path d="M99.4887 94.3917L93.6426 84.761L110.53 84.7618L110.53 73.0699L80.9398 73.0708L76.6441 80.1464L88.8414 100.238L99.4887 94.3917Z" fill="white"/>
</svg>
