<svg width="110" height="110" viewBox="0 0 110 110" fill="none" xmlns="http://www.w3.org/2000/svg">
<rect width="110" height="110" fill="black"/>
<path d="M47.8549 90.7216L53.7023 81.0918L62.1452 95L72.793 89.1545L57.997 64.7851H49.4055L37.2071 84.8763L47.8549 90.7216Z" fill="white"/>
<path d="M18.8963 66.9764L30.5899 66.977L22.1455 80.8843L32.7928 86.7309L47.5873 62.3607L43.2916 55.2851L18.8959 55.2844L18.8963 66.9764Z" fill="white"/>
<path d="M26.0416 31.2547L31.8876 40.8856L15.0004 40.8845L15 52.5766L44.5905 52.5758L48.8862 45.5002L36.6889 25.4083L26.0416 31.2547Z" fill="white"/>
<path d="M62.1452 19.2781L56.2978 28.9082L47.8549 15L37.2071 20.8455L52.0031 45.2149H60.5946L72.793 25.1237L62.1452 19.2781Z" fill="white"/>
<path d="M91.1036 43.0235L79.4101 43.0229L87.8544 29.1155L77.2071 23.2691L62.4126 47.6392L66.7083 54.715L91.104 54.7154L91.1036 43.0235Z" fill="white"/>
<path d="M83.9584 78.7452L78.1124 69.1145L94.9996 69.1153L95 57.4234L65.4095 57.4242L61.1138 64.4999L73.3111 84.5917L83.9584 78.7452Z" fill="white"/>
</svg>
